<svg width="18" height="19" viewBox="0 0 18 19" fill="none" xmlns="http://www.w3.org/2000/svg">
    <g clip-path="url(#clip0_3_6935)">
        <path d="M14.2783 1.83497H12.3741C12.2233 1.66697 12.0643 1.50572 11.8873 1.36022C10.8456 0.50222 9.47607 0.15947 8.12907 0.42272C7.17207 0.60947 6.34557 1.12547 5.72007 1.83497H3.77832C1.71057 1.83497 0.0283203 3.51722 0.0283203 5.58497V14.585C0.0283203 16.6527 1.71057 18.335 3.77832 18.335H6.77832C7.19307 18.335 7.52832 17.9997 7.52832 17.585C7.52832 17.1702 7.19307 16.835 6.77832 16.835H3.77832C2.53782 16.835 1.52832 15.8255 1.52832 14.585V5.58497C1.52832 4.34447 2.53782 3.33497 3.77832 3.33497H4.82307C4.63482 3.85397 4.52832 4.41272 4.52832 4.99622C4.52832 6.14822 5.46507 7.08497 6.61707 7.08497H11.4396C12.5916 7.08497 13.5283 6.14747 13.5283 4.99622C13.5418 4.42772 13.4578 3.85847 13.2703 3.33497H14.2783C15.5188 3.33497 16.5283 4.34447 16.5283 5.58497V7.08497C16.5283 7.49897 16.8636 7.83497 17.2783 7.83497C17.6931 7.83497 18.0283 7.49897 18.0283 7.08497V5.58497C18.0283 3.51722 16.3461 1.83497 14.2783 1.83497ZM12.0283 4.99622C12.0283 5.32097 11.7636 5.58497 11.4396 5.58497H9.68007L10.4031 4.50122C10.6333 4.15697 10.5403 3.69047 10.1953 3.46097C9.84882 3.22997 9.38457 3.32372 9.15507 3.66872L7.87782 5.58497H6.61782C6.29307 5.58497 6.02907 5.32097 6.02907 4.99622C6.02157 3.23597 7.36782 1.80422 9.03507 1.83422C10.7046 1.79597 12.1423 3.33197 12.0283 4.99622ZM12.7498 7.83497C9.85557 7.83497 7.49982 10.1907 7.49982 13.085C7.49982 15.9792 9.85557 18.335 12.7498 18.335C15.6441 18.335 17.9998 15.9792 17.9998 13.085C17.9998 10.1907 15.6441 7.83497 12.7498 7.83497ZM12.7498 16.835C10.6821 16.835 8.99982 15.1527 8.99982 13.085C8.99982 11.0172 10.6821 9.33497 12.7498 9.33497C14.8176 9.33497 16.4998 11.0172 16.4998 13.085C16.4998 15.1527 14.8176 16.835 12.7498 16.835ZM14.9488 13.4907C15.0501 13.7345 14.9953 14.0195 14.8063 14.2085L13.6813 15.3335C13.1676 15.8472 12.3313 15.8472 11.8176 15.3335L10.6926 14.2085C10.2748 13.82 10.5951 13.0842 11.1583 13.0842H11.9991V11.5842C11.9991 11.1695 12.3343 10.8342 12.7491 10.8342C13.1638 10.8342 13.4991 11.1695 13.4991 11.5842V13.0842H14.3398C14.6061 13.0842 14.8468 13.2447 14.9488 13.4907Z" fill="white"/>
    </g>
    <defs>
        <clipPath id="clip0_3_6935">
            <rect width="18" height="18" fill="white" transform="translate(0 0.334961)"/>
        </clipPath>
    </defs>
</svg>
