<svg width="19" height="20" viewBox="0 0 19 20" fill="none" xmlns="http://www.w3.org/2000/svg">
    <g clip-path="url(#clip0_3_6940)">
        <path d="M11.4789 11.5225C11.4789 12.6158 10.593 13.5016 9.49973 13.5016C8.40644 13.5016 7.52057 12.6158 7.52057 11.5225C7.52057 10.4292 8.40644 9.54329 9.49973 9.54329C10.593 9.54329 11.4789 10.4292 11.4789 11.5225ZM17.6017 9.79821C17.3064 9.47759 16.8044 9.457 16.483 9.75309L12.0204 13.8729C11.7267 14.1437 11.3443 14.2933 10.9461 14.2933H8.05336C7.65436 14.2933 7.27278 14.1445 6.97986 13.8737L2.51644 9.75309C2.19582 9.457 1.6939 9.47679 1.39782 9.79821C1.10094 10.1196 1.12073 10.6208 1.44215 10.9168L5.90636 15.0375C6.03936 15.1602 6.18423 15.2663 6.33386 15.3636V19.0433C6.33386 19.4803 6.68773 19.835 7.12553 19.835C7.56332 19.835 7.91719 19.4803 7.91719 19.0433V15.864C7.96311 15.8663 8.00744 15.8766 8.05415 15.8766H10.9469C10.9928 15.8766 11.0379 15.8655 11.0839 15.864V19.0433C11.0839 19.4803 11.4377 19.835 11.8755 19.835C12.3133 19.835 12.6672 19.4803 12.6672 19.0433V15.3636C12.8168 15.2663 12.9617 15.1602 13.0955 15.0375L17.5589 10.9168C17.8795 10.62 17.9001 10.1196 17.6032 9.79821H17.6017ZM5.5414 3.20996C5.5414 1.90054 6.60698 0.834961 7.9164 0.834961C8.5244 0.834961 9.07936 1.06454 9.49973 1.44138C9.92011 1.06454 10.4751 0.834961 11.0831 0.834961C12.3925 0.834961 13.4581 1.90054 13.4581 3.20996C13.4581 5.32688 10.5907 7.53959 10.4687 7.633C10.1837 7.84992 9.84173 7.95917 9.49973 7.95917C9.15773 7.95917 8.81653 7.85071 8.53153 7.63379C8.40882 7.54038 5.5414 5.32609 5.5414 3.20996ZM7.12473 3.20996C7.12473 4.04913 8.3534 5.50579 9.49103 6.37425C10.6461 5.50579 11.8747 4.04834 11.8747 3.20996C11.8747 2.77375 11.5201 2.41829 11.0831 2.41829C10.6461 2.41829 10.2914 2.77375 10.2914 3.20996C10.2914 3.64617 9.93752 4.00163 9.49973 4.00163C9.06194 4.00163 8.70807 3.64696 8.70807 3.20996C8.70807 2.77296 8.3534 2.41829 7.9164 2.41829C7.4794 2.41829 7.12473 2.77375 7.12473 3.20996Z" fill="white"/>
    </g>
    <defs>
        <clipPath id="clip0_3_6940">
            <rect width="19" height="19" fill="white" transform="translate(0 0.834961)"/>
        </clipPath>
    </defs>
</svg>
