<svg width="18" height="19" viewBox="0 0 18 19" fill="none" xmlns="http://www.w3.org/2000/svg">
    <g clip-path="url(#clip0_3_6945)">
        <path d="M17.4698 8.63783C17.2639 8.39419 17.0086 8.19712 16.7208 8.05967C16.433 7.92222 16.1192 7.84754 15.8003 7.84058C16.1916 6.37762 16.4262 4.87717 16.5001 3.36458L16.5323 2.54783L15.7156 2.58458C14.7947 2.63402 13.8776 2.7382 12.9691 2.89658C13.3344 2.09272 13.5159 1.21745 13.5001 0.334579H12.0001C12.0084 0.912997 11.9066 1.48772 11.7001 2.02808C11.5575 1.72418 11.3639 1.44693 11.1278 1.20833C10.6035 0.685355 9.90364 0.375813 9.16399 0.33978C8.42434 0.303747 7.69769 0.543793 7.12505 1.01333C6.56927 0.553698 5.86553 0.311474 5.14459 0.331674C4.42366 0.351874 3.73458 0.633123 3.20541 1.12315C2.67624 1.61318 2.34297 2.27866 2.26754 2.99592C2.19211 3.71318 2.37965 4.43344 2.7953 5.02283C2.37143 5.38562 2.03538 5.83984 1.81246 6.35129C1.58953 6.86275 1.48554 7.41811 1.5083 7.97558C1.00744 8.14429 0.583332 8.48639 0.312426 8.94019C0.041521 9.39399 -0.0583556 9.92964 0.0308018 10.4506C0.286971 12.1064 0.932581 13.6777 1.91452 15.0353C2.89647 16.3929 4.18669 17.4979 5.67905 18.2596L5.82905 18.3346H12.1673L12.3173 18.2596C13.8102 17.4975 15.1007 16.3918 16.0826 15.0333C17.0644 13.6749 17.7096 12.1027 17.9648 10.4461C18.0189 10.1268 18.0027 9.79957 17.9172 9.48724C17.8317 9.1749 17.679 8.88501 17.4698 8.63783ZM14.2298 7.83458H12.3106L13.2803 6.86483L12.2191 5.80433L10.1888 7.83458H9.02705C8.97233 7.44012 9.00997 7.03834 9.137 6.6609C9.26402 6.28347 9.47697 5.94069 9.75905 5.65958C10.6081 4.81058 13.1071 4.32158 14.9393 4.14758C14.8389 5.39889 14.6009 6.63535 14.2298 7.83458ZM3.00005 7.83458C3.00005 7.23784 3.23711 6.66554 3.65906 6.24359C4.08102 5.82163 4.65332 5.58458 5.25005 5.58458C5.84679 5.58458 6.41909 5.82163 6.84104 6.24359C7.263 6.66554 7.50005 7.23784 7.50005 7.83458H3.00005ZM4.18355 2.26883C4.46163 1.99161 4.83827 1.83594 5.23093 1.83594C5.62358 1.83594 6.00023 1.99161 6.2783 2.26883C6.34955 2.34383 7.1243 3.19133 7.1243 3.19133C7.1243 3.19133 7.8998 2.34083 7.9703 2.26958C8.19006 2.04631 8.4754 1.89909 8.78471 1.84939C9.09402 1.79968 9.41112 1.85009 9.68977 1.99327C9.96841 2.13644 10.194 2.36489 10.3337 2.6453C10.4734 2.92571 10.5199 3.24341 10.4663 3.55208C9.47126 3.85569 8.62197 4.5134 8.07905 5.40083C7.60484 4.8404 6.97412 4.4343 6.26769 4.23454C5.56125 4.03478 4.81127 4.05047 4.1138 4.27958C3.86981 3.99735 3.74143 3.63337 3.75437 3.26053C3.7673 2.88768 3.92059 2.53347 4.18355 2.26883ZM16.4888 10.1986C16.2683 11.5865 15.7337 12.9058 14.9259 14.0558C14.1181 15.2059 13.0584 16.1563 11.8276 16.8346H6.1718C4.94083 16.1562 3.88103 15.2057 3.07322 14.0556C2.26541 12.9054 1.73094 11.5859 1.51055 10.1978C1.49265 10.0931 1.49809 9.98564 1.52648 9.88323C1.55487 9.78081 1.60552 9.68592 1.6748 9.60533C1.74624 9.52054 1.83534 9.45238 1.93587 9.40561C2.0364 9.35884 2.14593 9.3346 2.2568 9.33458H15.7426C15.8534 9.3346 15.963 9.35884 16.0635 9.40561C16.164 9.45238 16.2531 9.52054 16.3246 9.60533C16.3937 9.68614 16.4443 9.78117 16.4727 9.88368C16.501 9.9862 16.5066 10.0937 16.4888 10.1986Z" fill="white"/>
    </g>
    <defs>
        <clipPath id="clip0_3_6945">
            <rect width="18" height="18" fill="white" transform="translate(0 0.334961)"/>
        </clipPath>
    </defs>
</svg>
