<svg width="19" height="19" viewBox="0 0 19 19" fill="none" xmlns="http://www.w3.org/2000/svg">
    <g clip-path="url(#clip0_3_2533)">
        <path d="M14.6143 4.08502H12.3643C11.33 4.08502 10.4893 4.92652 10.4893 5.96002V8.58502H9.45276L8.42601 6.53077C7.90326 5.48452 6.85101 4.83502 5.68176 4.83502C4.19751 4.83502 2.98926 6.04327 2.98926 7.53802L3.02976 10.373C3.04476 11.4185 3.58776 12.3635 4.48326 12.9013L6.37626 14.0398C6.60051 14.1748 6.73926 14.4215 6.73926 14.6825V17.5843C6.73926 17.9983 7.07451 18.3343 7.48926 18.3343C7.90401 18.3343 8.23926 17.9983 8.23926 17.5843V14.6825C8.23926 13.898 7.82151 13.1593 7.14951 12.7543L5.25576 11.615C4.80876 11.3458 4.53726 10.8733 4.52976 10.3505L4.48926 7.52602C4.48926 6.86827 5.02401 6.33352 5.68176 6.33352C5.78676 6.33352 5.88951 6.34402 5.98926 6.36352V10.0835C5.98926 10.4975 6.32451 10.8335 6.73926 10.8335C7.15401 10.8335 7.48926 10.4975 7.48926 10.0835V8.00977L8.11101 9.25327C8.36601 9.76552 8.87976 10.0828 9.45276 10.0828H14.6143C15.6485 10.0828 16.4893 9.24127 16.4893 8.20777V5.95777C16.4893 4.92427 15.6485 4.08277 14.6143 4.08277V4.08502ZM14.9893 8.21002C14.9893 8.41702 14.8205 8.58502 14.6143 8.58502H11.9893V5.96002C11.9893 5.75302 12.158 5.58502 12.3643 5.58502H14.6143C14.8205 5.58502 14.9893 5.75302 14.9893 5.96002V8.21002ZM3.73926 2.21002C3.73926 1.17427 4.57851 0.335022 5.61426 0.335022C6.65001 0.335022 7.48926 1.17427 7.48926 2.21002C7.48926 3.24577 6.65001 4.08502 5.61426 4.08502C4.57851 4.08502 3.73926 3.24577 3.73926 2.21002ZM5.23926 15.335V17.585C5.23926 17.999 4.90401 18.335 4.48926 18.335C4.07451 18.335 3.73926 17.999 3.73926 17.585V15.335C3.73926 14.921 4.07451 14.585 4.48926 14.585C4.90401 14.585 5.23926 14.921 5.23926 15.335Z" fill="white"/>
    </g>
    <defs>
        <clipPath id="clip0_3_2533">
            <rect width="18" height="18" fill="white" transform="translate(0.739258 0.335022)"/>
        </clipPath>
    </defs>
</svg>
