<svg width="19" height="19" viewBox="0 0 19 19" fill="none" xmlns="http://www.w3.org/2000/svg">
    <g clip-path="url(#clip0_3_3767)">
        <path d="M7.86426 2.21002C7.86426 1.17427 8.70351 0.335022 9.73926 0.335022C10.775 0.335022 11.6143 1.17427 11.6143 2.21002C11.6143 3.24577 10.775 4.08502 9.73926 4.08502C8.70351 4.08502 7.86426 3.24577 7.86426 2.21002ZM16.4893 2.58502C15.2488 2.58502 14.2393 3.59452 14.2393 4.83502V8.72302C14.0398 8.65252 13.8328 8.60002 13.6153 8.58802C13.0205 8.55652 12.44 8.75752 11.9855 9.16477L9.72876 11.2415C9.66651 11.1785 9.60876 11.1125 9.54351 11.0518L7.48551 9.15802C7.03776 8.75752 6.45501 8.55727 5.86326 8.58802C5.64576 8.60002 5.43876 8.65252 5.23926 8.72302V4.83502C5.23926 3.59452 4.22976 2.58502 2.98926 2.58502C1.74876 2.58502 0.739258 3.59452 0.739258 4.83502V12.4108C0.739258 14.0135 1.36326 15.5203 2.49651 16.6535L3.95901 18.116C4.10526 18.2623 4.29726 18.3358 4.48926 18.3358C4.68126 18.3358 4.87326 18.2623 5.01951 18.116C5.31276 17.8228 5.31276 17.348 5.01951 17.0555L3.55701 15.593C2.70726 14.7433 2.23926 13.613 2.23926 12.4108V4.83502C2.23926 4.42177 2.57526 4.08502 2.98926 4.08502C3.40326 4.08502 3.73926 4.42177 3.73926 4.83502C3.73926 4.83502 3.73551 10.892 3.73926 10.922C3.76176 11.4133 3.95301 11.9038 4.29876 12.3148L6.26076 14.3555C6.54726 14.654 7.02201 14.6638 7.32126 14.3758C7.61901 14.0885 7.62876 13.6138 7.34151 13.3153L5.41326 11.3128C5.17626 11.03 5.18301 10.6093 5.42976 10.334C5.56251 10.1855 5.74551 10.0978 5.94501 10.0865C6.14226 10.073 6.33576 10.1428 6.47751 10.2695L8.52726 12.1565C9.29676 12.8645 9.73851 13.871 9.73851 14.9165V17.5858C9.73851 17.9998 10.0738 18.3358 10.4885 18.3358C10.9033 18.3358 11.2385 17.9998 11.2385 17.5858V14.9165C11.2385 14.0525 11.018 13.2103 10.6205 12.4595L12.9928 10.2763C13.1413 10.1428 13.334 10.073 13.5328 10.0865C13.7323 10.0978 13.9153 10.1855 14.048 10.334C14.168 10.4675 14.3788 10.994 14.0983 11.2745L12.1985 13.25C11.9113 13.5485 11.921 14.0233 12.2188 14.3105C12.3643 14.4508 12.551 14.5198 12.7385 14.5198C12.9358 14.5198 13.1315 14.4425 13.2793 14.2895L15.2128 12.2758C15.5503 11.8738 15.7273 11.3795 15.7385 10.883C15.74 10.8658 15.7385 4.83427 15.7385 4.83427C15.7385 4.42102 16.0745 4.08427 16.4885 4.08427C16.9025 4.08427 17.2385 4.42102 17.2385 4.83427V12.41C17.2385 13.6123 16.7705 14.7418 15.9208 15.5923L14.4583 17.0548C14.165 17.3473 14.165 17.822 14.4583 18.1153C14.6045 18.2615 14.7965 18.335 14.9885 18.335C15.1805 18.335 15.3725 18.2615 15.5188 18.1153L16.9813 16.6528C18.1145 15.5195 18.7385 14.0128 18.7385 12.41V4.83502C18.7385 3.59452 17.7298 2.58502 16.4893 2.58502ZM8.48601 8.04052L9.13401 8.63677C9.47601 8.95177 10.0025 8.95177 10.3445 8.63677L10.97 8.06152C11.4718 7.61227 12.0823 7.32127 12.7235 7.18402C12.7273 7.17802 12.7295 7.17502 12.7333 7.16902C12.4235 5.83252 11.201 4.83502 9.74001 4.83502C8.27901 4.83502 7.05726 5.83177 6.74676 7.16752C6.75051 7.17352 6.75201 7.17652 6.75576 7.18177C7.37901 7.31152 7.97901 7.58602 8.48676 8.03977L8.48601 8.04052Z" fill="white"/>
    </g>
    <defs>
        <clipPath id="clip0_3_3767">
            <rect width="18" height="18" fill="white" transform="translate(0.739258 0.335022)"/>
        </clipPath>
    </defs>
</svg>
