<svg width="19" height="19" viewBox="0 0 19 19" fill="none" xmlns="http://www.w3.org/2000/svg">
    <g clip-path="url(#clip0_3_5001)">
        <path d="M3.23949 5.58502C3.23949 2.47327 4.62774 1.08502 7.73949 1.08502C8.38149 1.08502 8.92974 1.14127 9.41349 1.25677C9.81624 1.35352 10.0652 1.75777 9.96849 2.16127C9.87174 2.56477 9.46824 2.81152 9.06474 2.71627C8.70174 2.62927 8.25549 2.58502 7.73874 2.58502C5.46774 2.58502 4.73874 3.31402 4.73874 5.58502C4.73874 7.85602 5.46774 8.58502 7.73874 8.58502C8.57499 8.58502 9.19974 8.47477 9.64974 8.24677C10.0217 8.05927 10.471 8.20777 10.6585 8.57677C10.8452 8.94652 10.6975 9.39727 10.3285 9.58477C9.66324 9.92152 8.81649 10.085 7.73949 10.085C4.62774 10.085 3.23949 8.69677 3.23949 5.58502ZM7.73949 10.835C3.28974 10.835 1.20849 12.6733 0.990243 16.7953C0.969243 17.2085 1.28649 17.5618 1.69974 17.5835C2.10024 17.5993 2.46624 17.2873 2.48874 16.874C2.60424 14.6908 3.26874 13.4165 4.75299 12.7993L4.74624 13.9423C4.21824 14.126 3.99024 14.5603 3.99024 15.3343C3.99024 16.406 4.41849 16.8343 5.49024 16.8343C6.56199 16.8343 6.99024 16.406 6.99024 15.3343C6.99024 14.567 6.76524 14.1335 6.24624 13.9475L6.25599 12.4235C6.70524 12.3658 7.19499 12.3343 7.74024 12.3343C8.14374 12.3343 8.51499 12.3523 8.86524 12.383V13.9933C8.20374 14.2835 7.74024 14.9428 7.74024 15.7093V16.8343C7.74024 17.2483 8.07549 17.5843 8.49024 17.5843C8.90499 17.5843 9.24024 17.2483 9.24024 16.8343V15.7093C9.24024 15.5023 9.40899 15.3343 9.61524 15.3343C9.82149 15.3343 9.99024 15.5023 9.99024 15.7093V16.8343C9.99024 17.2483 10.3255 17.5843 10.7402 17.5843C11.155 17.5843 11.4902 17.2483 11.4902 16.8343V15.7093C11.4902 14.942 11.0267 14.2835 10.3652 13.9933V12.6665C12.1052 13.2223 12.8665 14.5205 12.991 16.874C13.012 17.288 13.3697 17.6068 13.78 17.5835C14.194 17.5618 14.5112 17.2085 14.4895 16.7953C14.2712 12.6733 12.19 10.835 7.74024 10.835H7.73949ZM17.4895 4.46002C17.4895 6.76252 16.417 7.83502 14.1145 7.83502C13.1905 7.83502 11.6252 7.70677 11.5592 7.70152C11.1947 7.67152 10.9052 7.38277 10.8737 7.01827C10.8677 6.95452 10.7395 5.45227 10.7395 4.46002C10.7395 2.15752 11.812 1.08502 14.1145 1.08502C16.417 1.08502 17.4895 2.15752 17.4895 4.46002ZM15.9895 4.46002C15.9895 3.00577 15.5687 2.58502 14.1145 2.58502C12.6602 2.58502 12.2395 3.00577 12.2395 4.46002C12.2395 5.00227 12.283 5.73502 12.319 6.25402C12.8515 6.29077 13.6045 6.33502 14.1145 6.33502C15.5687 6.33502 15.9895 5.91427 15.9895 4.46002Z" fill="white"/>
    </g>
    <defs>
        <clipPath id="clip0_3_5001">
            <rect width="18" height="18" fill="white" transform="translate(0.239258 0.335022)"/>
        </clipPath>
    </defs>
</svg>
